<svg width="138" height="139" viewBox="0 0 138 139" fill="none" xmlns="http://www.w3.org/2000/svg">
<path d="M86.8259 1.2294C79.6803 2.20013 73.6132 4.78873 67.8158 9.31878C54.9537 19.3766 49.7496 36.58 54.8728 52.1655C57.003 58.7449 61.2095 65.1085 66.3328 69.5037C71.4561 73.9259 77.6849 77.0269 83.9676 78.3212C90.0077 79.5885 101.629 79.5885 107.022 78.3212L108.748 77.9167L114.195 83.3366C119.426 88.5138 119.696 88.7295 120.693 88.7295C121.799 88.7295 122.689 88.1632 123.201 87.1925C123.39 86.815 123.498 83.9837 123.498 78.6178V70.6363L126.14 68.0207C129.969 64.2456 132.854 60.0931 134.769 55.6979C141.834 39.3304 137.034 20.2125 123.093 9.31878C117.215 4.70783 111.202 2.20013 103.841 1.20244C100.254 0.744041 90.3582 0.744041 86.8259 1.2294ZM105.324 6.83804C115.813 9.0761 124.388 15.6555 129.187 25.12C130.239 27.2502 131.695 31.6724 132.153 34.261C132.612 36.7418 132.612 43.4559 132.153 45.8558C130.643 53.9721 126.707 60.6054 119.992 66.4028L118.24 67.9128L118.159 73.7641L118.078 79.6424L114.33 75.9213L110.582 72.2272L109.422 72.362C108.775 72.4159 107.049 72.7665 105.566 73.117C103.139 73.6833 102.196 73.7372 95.859 73.7372C86.4214 73.7641 83.0508 73.117 77.2265 70.2587C67.6541 65.5669 61.1017 57.0461 58.8906 46.3951C58.2973 43.5638 58.2164 37.2002 58.7557 34.261C60.6433 23.7179 67.4653 14.6038 77.0917 9.72325C79.4376 8.56377 83.8058 7.16161 86.2866 6.78411C87.3921 6.62232 88.6055 6.43357 88.983 6.37964C90.6818 6.08303 103.49 6.46053 105.324 6.83804Z" fill="white"/>
<path d="M93.1629 20.1856C90.844 20.8867 89.8732 21.453 88.2554 23.0978C86.26 25.0932 85.1275 27.547 84.9926 30.1625C84.8848 32.0231 84.9117 32.1849 85.6398 32.9399C86.6105 33.9646 88.0666 34.0185 89.1991 33.0478C89.8193 32.5085 90.035 32.0501 90.2777 30.594C90.6282 28.4098 91.5181 26.9807 93.109 26.0639C95.5628 24.6078 98.4749 24.9584 100.389 26.9268C103.652 30.2974 102.385 35.2319 97.7739 36.9307C94.0797 38.3058 93.5674 39.2766 93.5674 44.9931C93.5674 47.4738 93.6752 49.3344 93.864 49.7388C94.0527 50.1163 94.592 50.6017 95.1044 50.8444C95.9403 51.2489 96.1829 51.2489 97.0458 50.9253C98.6098 50.3321 98.9603 49.3074 98.9603 45.3706C98.9603 42.9168 99.0412 42.0809 99.3108 42.0809C100.201 42.0809 103.005 40.4091 104.245 39.1418C109.854 33.4253 108.155 24.2034 100.902 20.8598C98.394 19.7003 95.6167 19.4576 93.1629 20.1856Z" fill="white"/>
<path d="M95.5358 56.5606C94.592 56.7493 93.5674 58.1515 93.5674 59.2571C93.5674 61.3333 96.3447 62.6007 97.8548 61.1985C99.931 59.2571 98.3401 56.0483 95.5358 56.5606Z" fill="white"/>
<path d="M14.9655 48.1749C13.9408 48.3906 11.9454 49.1456 10.5433 49.7928C8.44004 50.8174 7.60414 51.4107 5.66269 53.3521C3.64034 55.3475 3.12802 56.0755 2.0764 58.2597C-0.0538039 62.6819 0.000125253 62.0077 0.000125253 87.3814C0.000125253 112.755 -0.0538039 112.081 2.0764 116.503C3.12802 118.687 3.64034 119.415 5.66269 121.411C7.60414 123.352 8.44004 123.945 10.5433 124.943C14.4531 126.858 15.7744 127.019 26.0749 127.019H34.9193L40.0425 132.17C46.8107 138.992 47.4039 139.396 49.1566 138.587C50.5048 137.967 50.6936 137.185 50.6936 131.9V127.019H64.7151C80.786 127.019 81.2714 126.965 85.4779 124.943C87.635 123.918 88.417 123.352 90.3585 121.384C92.3269 119.442 92.8931 118.66 93.9178 116.503C95.9132 112.378 96.021 111.353 95.9401 99.0301L95.8592 88.4061L94.9425 87.5971C94.1874 86.923 93.8908 86.8152 93.0549 86.95C92.4347 87.0309 91.8146 87.4084 91.3562 87.9207L90.6012 88.7297V99.1919C90.6012 110.679 90.5472 111.272 88.9563 114.4C87.9317 116.449 85.5318 118.903 83.5904 119.874C80.2467 121.573 81.4332 121.465 63.4478 121.626L46.9185 121.761L46.1905 122.516C45.4624 123.217 45.4355 123.406 45.3006 126.372L45.1658 129.473L41.6604 125.941C39.7459 123.972 37.9123 122.22 37.6157 122.004C37.1843 121.707 35.2159 121.626 27.2344 121.626C19.3607 121.626 17.0687 121.546 15.8283 121.222C10.8399 119.928 7.09181 116.18 5.79751 111.191C5.20429 108.899 5.20429 65.8637 5.79751 63.5717C7.09181 58.5832 10.8399 54.8352 15.8283 53.5409C17.0957 53.2173 19.927 53.1364 32.1419 53.1364H46.9185L47.7814 52.3544C48.5094 51.7073 48.6712 51.3837 48.6712 50.4399C48.6712 49.4962 48.5094 49.1726 47.7814 48.5255L46.9185 47.7435L31.8723 47.7704C19.7382 47.7704 16.5025 47.8513 14.9655 48.1749Z" fill="white"/>
<path d="M16.3137 69.558C14.5879 70.2861 14.1295 72.5241 15.4508 73.8184L16.1788 74.5734L36.8067 74.6543L57.4077 74.7083L58.2975 73.9263C59.0256 73.2791 59.1874 72.9556 59.1874 72.0118C59.1874 71.068 59.0256 70.7445 58.2975 70.0973L57.4347 69.3153L37.1303 69.3423C25.9939 69.3423 16.6103 69.4502 16.3137 69.558Z" fill="white"/>
<path d="M16.3137 84.6581C14.5879 85.3862 14.1295 87.6242 15.4508 88.9185L16.1788 89.6735L45.5702 89.7544L74.9347 89.8083L75.8245 89.0264C76.5526 88.3792 76.7143 88.0557 76.7143 87.1119C76.7143 86.1681 76.5526 85.8446 75.8245 85.1974L74.9616 84.4154L45.8938 84.4424C29.9308 84.4424 16.6103 84.5503 16.3137 84.6581Z" fill="white"/>
<path d="M16.3137 99.7585C14.5879 100.487 14.1295 102.725 15.4508 104.019L16.1788 104.774L40.1234 104.828C58.8368 104.882 64.1758 104.828 64.7151 104.558C65.0926 104.369 65.6049 103.776 65.8746 103.21C66.3599 102.239 66.3599 102.185 65.8746 101.215C65.6049 100.648 65.0926 100.055 64.7151 99.8664C64.2028 99.5968 58.729 99.5159 40.447 99.5428C27.477 99.5428 16.6103 99.6507 16.3137 99.7585Z" fill="white"/>
<path d="M73.2092 99.7579C71.4834 100.486 71.025 102.724 72.3463 104.018C73.9642 105.663 76.7146 104.531 76.7146 102.212C76.7146 100.432 74.7731 99.0838 73.2092 99.7579Z" fill="white"/>
</svg>
