<svg width="117" height="117" viewBox="0 0 117 117" fill="none" xmlns="http://www.w3.org/2000/svg">
<path d="M22.1604 0.218994C18.6786 0.852043 15.5864 2.48336 12.8838 5.18598C10.7168 7.3773 9.42639 9.42252 8.42813 12.3443L7.79508 14.2191L7.72204 53.8332L7.67334 93.4717H9.62118H11.569V54.9289C11.569 28.6331 11.6421 15.9234 11.8368 14.9252C12.2508 12.5391 13.736 9.8121 15.5864 7.96165C17.4369 6.08685 20.2856 4.55293 22.623 4.13902C24.5708 3.7738 43.3918 3.7738 45.3153 4.13902C50.9397 5.13728 55.6145 10.226 56.2719 16.0452L56.4423 17.5061H58.3901H60.338L60.1432 15.753C59.7536 11.7112 58.0736 8.25382 55.0301 5.21033C52.8145 2.99467 50.7936 1.70422 47.9692 0.778999L46.0214 0.121605L34.6996 0.0729065C28.4665 0.0485611 22.8421 0.121605 22.1604 0.218994Z" fill="white"/>
<path d="M106.088 0.292191C105.236 0.779152 97.274 12.8557 97.274 13.6836C97.274 14.0731 97.5175 14.6088 97.8827 14.9497C98.4427 15.534 98.5888 15.5584 101.778 15.5584H105.065L105.017 58.8247L104.944 102.115L104.384 103.625C103.191 106.815 100.658 109.809 98.0288 111.197C94.8636 112.853 95.1557 112.828 82.6652 112.828C72.2686 112.828 71.246 112.78 70.0043 112.366C64.8425 110.613 61.1903 106.401 60.4599 101.288L60.1677 99.3153H58.2442H56.2964L56.4912 101.068C56.8807 105.11 58.5607 108.568 61.6042 111.611C63.8199 113.827 65.8408 115.093 68.6651 116.067L70.613 116.724H82.6652H94.7175L96.6653 116.067C99.4897 115.093 101.511 113.827 103.726 111.611C105.942 109.395 107.208 107.375 108.182 104.55L108.839 102.602L108.912 59.0682L108.961 15.5584H112.272C115.438 15.5584 115.584 15.534 116.144 14.9497C117.239 13.8783 117.045 13.4401 112.613 6.81744C108.742 0.998283 107.914 1.52588e-05 107.013 1.52588e-05C106.818 1.52588e-05 106.404 0.121758 106.088 0.292191ZM109.156 8.61919L111.152 11.6627H107.013H102.874L104.871 8.61919C105.991 6.96353 106.94 5.60004 107.013 5.60004C107.086 5.60004 108.036 6.96353 109.156 8.61919Z" fill="white"/>
<path d="M56.3696 23.3498V25.2976H58.3175H60.2653V23.3498V21.4019H58.3175H56.3696V23.3498Z" fill="white"/>
<path d="M51.1345 29.8023C50.5502 30.3623 50.5258 30.5327 50.5258 33.4058V36.4249L49.4058 36.8632L48.3101 37.2771L46.1675 35.1832C43.051 32.1397 43.4649 31.9936 37.6944 37.7884C31.8996 43.5589 32.0457 43.1449 35.0892 46.2615L37.1831 48.4041L36.7449 49.4998L36.2823 50.6198H33.2875C30.4387 50.6198 30.2683 50.6441 29.7083 51.2285L29.0996 51.8128V58.4111V65.0094L29.7083 65.5938C30.2683 66.1781 30.4387 66.2025 33.2875 66.2025H36.2823L36.7449 67.3225L37.1831 68.4181L35.0892 70.5607C32.0457 73.6773 31.8996 73.2634 37.6944 79.0338C43.4649 84.8286 43.051 84.6826 46.1675 81.6391L48.3101 79.5451L49.4058 79.9591L50.5258 80.3973V83.4165C50.5258 86.2895 50.5502 86.46 51.1345 87.02L51.7189 87.6287H58.3172H64.9155L65.4998 87.02C66.0842 86.46 66.1085 86.2895 66.1085 83.4408V80.446L67.2285 79.9834L68.3242 79.5451L70.4668 81.6391C73.5833 84.6826 73.1694 84.8286 78.9399 79.0338C84.7347 73.2634 84.5886 73.6773 81.5451 70.5607L79.4512 68.4181L79.8651 67.3225L80.3034 66.2025H83.3225C86.1956 66.2025 86.366 66.1781 86.926 65.5938L87.5347 65.0094V58.4111V51.8128L86.926 51.2285C86.366 50.6441 86.1956 50.6198 83.3225 50.6198H80.3034L79.8651 49.4998L79.4512 48.4041L81.5451 46.2615C84.5886 43.1449 84.7347 43.5589 78.9399 37.7884C73.1694 31.9936 73.5833 32.1397 70.4668 35.1832L68.3242 37.2771L67.2285 36.8388L66.1085 36.3762V33.3814C66.1085 30.5327 66.0842 30.3623 65.4998 29.8023L64.9155 29.1936H58.3172H51.7189L51.1345 29.8023ZM62.2128 35.7432C62.2128 38.811 62.4807 39.371 64.2094 39.8823C64.7937 40.0527 65.9624 40.5154 66.8146 40.9049C67.6668 41.2945 68.6407 41.611 68.9816 41.611C69.3955 41.611 70.1503 41.051 71.5625 39.6632L73.559 37.7397L76.286 40.4667L78.9886 43.1936L77.0651 45.1658C74.8251 47.4302 74.7764 47.625 75.8233 49.9137C76.2129 50.7659 76.6755 51.9346 76.846 52.5189C77.3573 54.2476 77.9173 54.5154 80.9851 54.5154H83.639V58.4111V62.3068H80.9851C77.9173 62.3068 77.3573 62.5746 76.846 64.3033C76.6755 64.8877 76.2129 66.0564 75.8233 66.9085C75.4338 67.7607 75.1173 68.7346 75.1173 69.0755C75.1173 69.4894 75.6773 70.2442 77.0651 71.6564L78.9886 73.6529L76.2616 76.3799L73.5346 79.0825L71.5625 77.159C69.2981 74.919 69.1033 74.8703 66.8146 75.9173C65.9624 76.3069 64.7937 76.7695 64.2094 76.9399C62.4807 77.4512 62.2128 78.0112 62.2128 81.0791V83.733H58.3172H54.4215V81.0791C54.4215 78.0112 54.1537 77.4512 52.425 76.9399C51.8406 76.7695 50.6719 76.3069 49.8197 75.9173C47.531 74.8703 47.3362 74.919 45.0719 77.159L43.0997 79.0825L40.3727 76.3799L37.6457 73.6529L39.5692 71.6564C40.9571 70.2442 41.5171 69.4894 41.5171 69.0755C41.5171 68.7346 41.2005 67.7607 40.811 66.9085C40.4214 66.0564 39.9588 64.8877 39.7884 64.3033C39.2771 62.5746 38.7171 62.3068 35.6492 62.3068H32.9953V58.4111V54.5154H35.6492C38.7171 54.5154 39.2771 54.2476 39.7884 52.5189C39.9588 51.9346 40.4214 50.7659 40.811 49.9137C41.8579 47.625 41.8092 47.4302 39.5692 45.1658L37.6457 43.1936L40.3484 40.4667L43.0753 37.7397L45.0719 39.6632C46.4841 41.051 47.2388 41.611 47.6528 41.611C47.9936 41.611 48.9675 41.2945 49.8197 40.9049C50.6719 40.5154 51.8406 40.0527 52.425 39.8823C54.1537 39.371 54.4215 38.811 54.4215 35.7432V33.0892H58.3172H62.2128V35.7432Z" fill="white"/>
<path d="M54.9329 43.1932C52.2546 43.7775 49.4302 45.3601 47.3607 47.4541C41.2737 53.5411 41.225 63.2559 47.2389 69.2455C50.2094 72.1916 53.472 73.7012 57.4407 73.9203C64.5503 74.3099 71.0756 69.7811 73.2425 62.915C73.9973 60.5046 73.9973 56.3167 73.2425 53.9063C70.7834 46.1636 62.8216 41.4888 54.9329 43.1932ZM61.1173 47.0888C65.3051 48.1845 68.5434 51.4471 69.639 55.6593C71.2217 61.722 67.3503 68.1011 61.1173 69.7324C55.0303 71.3151 48.6268 67.4437 46.9954 61.2107C44.8285 52.8837 52.7903 44.9219 61.1173 47.0888Z" fill="white"/>
<path d="M56.3696 93.4718V95.4197H58.3175H60.2653V93.4718V91.524H58.3175H56.3696V93.4718Z" fill="white"/>
<path d="M7.33264 97.611C5.79872 98.0005 3.6074 99.3153 2.53609 100.46C2.00044 101.044 1.19696 102.261 0.783041 103.162C0.0769501 104.648 0.00390625 105.013 0.00390625 107.131C0.00390625 109.322 0.0526022 109.541 0.904781 111.295C2.00044 113.51 3.41262 114.874 5.67698 115.945C7.16221 116.651 7.52742 116.724 9.62135 116.724C11.7153 116.724 12.0805 116.651 13.5657 115.945C15.8301 114.874 17.2423 113.51 18.3379 111.295C19.1901 109.541 19.2388 109.322 19.2388 107.107C19.2388 104.891 19.1901 104.672 18.3379 102.919C16.6823 99.6075 13.7605 97.6353 10.157 97.4649C9.13439 97.4162 7.8683 97.4892 7.33264 97.611ZM11.4231 101.555C13.517 102.188 15.4649 104.867 15.4649 107.107C15.4649 110.126 12.6405 112.95 9.62135 112.95C8.08743 112.95 6.84568 112.39 5.60394 111.124C3.12044 108.665 3.12044 105.548 5.60394 103.089C7.30829 101.361 9.13439 100.898 11.4231 101.555Z" fill="white"/>
</svg>
