<svg width="109" height="131" viewBox="0 0 109 131" fill="none" xmlns="http://www.w3.org/2000/svg">
<path d="M49.0059 0.280853C45.9855 0.613602 41.4293 1.68866 38.3322 2.78929C35.235 3.88995 31.3444 5.73288 30.6533 6.42398C29.9366 7.14068 30.039 8.52288 30.858 9.1628C31.242 9.46995 31.6771 9.70032 31.8563 9.70032C32.0355 9.70032 33.4689 9.08601 35.0814 8.31812C52.0774 0.280853 71.6074 3.30122 85.0199 16.0738C99.9426 30.2542 103.321 52.5998 93.262 70.4149C84.3288 86.2334 66.6673 95.1154 48.8011 92.7605C39.2024 91.5063 30.9092 87.4877 23.7167 80.6278C16.78 73.9728 12.3519 65.654 10.5857 55.9017C9.94582 52.3439 9.94582 44.6138 10.5857 41.0559C12.3263 31.4572 16.6521 23.2408 23.5375 16.4834C24.9709 15.0756 26.2507 13.7189 26.3787 13.463C26.9418 12.4391 25.9179 10.9801 24.6637 10.9801C24.0238 10.9801 23.4607 11.3129 22.0785 12.4903C18.0599 15.997 14.1436 21.2187 11.3792 26.7219C6.31114 36.8837 4.92893 47.2502 7.18141 58.3846C8.71719 66.0635 12.9406 74.5615 18.0343 80.2695L19.4421 81.8565L16.6265 86.771C15.0907 89.4842 13.8109 91.8902 13.8109 92.1718C13.8109 92.9141 14.9627 93.9123 15.8074 93.9123C16.8056 93.9123 17.164 93.554 18.4182 91.3527C19.0325 90.3033 20.1332 88.3579 20.9011 87.0525L22.2833 84.6977L24.1262 86.1822C28.5032 89.7657 33.8016 92.6581 39.2024 94.4499C41.071 95.0642 42.658 95.6017 42.7092 95.6273C42.8371 95.7041 26.5067 124.09 26.3275 124.116C26.2507 124.116 25.2268 121.096 24.075 117.384C22.8976 113.698 21.7713 110.473 21.5666 110.217C20.9523 109.552 20.0052 109.654 12.9918 111.19C9.45949 111.958 6.51591 112.546 6.43912 112.495C6.38793 112.419 7.89811 109.629 9.81784 106.275C13.5293 99.7995 13.6573 99.4412 12.4799 98.4429C11.8655 97.931 10.7649 97.8798 10.1762 98.3405C9.74105 98.6733 1.16627 113.417 0.628747 114.773C0.449572 115.183 0.372783 115.72 0.449572 115.925C0.654343 116.565 1.57581 117.461 2.03655 117.461C2.26691 117.461 6.13196 116.642 10.6113 115.669C15.0907 114.671 18.8022 113.929 18.8789 113.98C18.9301 114.057 20.1332 117.717 21.5154 122.12C23.3071 127.776 24.2286 130.259 24.5869 130.566C25.3804 131.232 26.3019 131.129 27.0698 130.31C27.4537 129.926 32.0355 122.145 37.2315 113.033L46.7022 96.472L48.4939 96.6768C50.8488 96.9071 58.2461 96.9071 60.5242 96.6512L62.316 96.4464L68.0751 106.506C71.2491 112.035 74.0391 116.744 74.2951 117C74.9862 117.717 76.3684 117.615 77.0083 116.795C77.3154 116.412 77.5458 115.925 77.5458 115.695C77.5458 115.464 75.0118 110.857 71.9146 105.456C68.8174 100.055 66.309 95.6017 66.3346 95.5761C66.3858 95.5505 67.1537 95.3201 68.0751 95.0642C73.9111 93.3748 80.515 89.8681 85.2503 85.9519C86.1206 85.2096 86.8885 84.6977 86.9397 84.8512C86.9908 84.9792 90.5743 91.2503 94.9257 98.7757C99.2771 106.301 102.809 112.495 102.784 112.521C102.784 112.521 99.661 111.881 95.8728 111.036C92.0845 110.217 88.7826 109.526 88.5522 109.526C87.426 109.526 87.2724 109.91 83.8937 120.584L82.793 124.116L81.8972 122.887C80.8989 121.556 79.9774 121.249 78.9792 121.915C77.8018 122.683 77.9041 123.425 79.6191 126.522C81.9228 130.643 82.0252 130.771 83.1002 130.771C84.7896 130.771 84.508 131.411 88.9106 117.435L90.088 113.724L97.9717 115.464C102.297 116.412 106.214 117.231 106.7 117.256C107.749 117.307 108.517 116.514 108.517 115.388C108.517 114.901 105.523 109.475 99.2515 98.5965C94.1834 89.7657 89.96 82.3172 89.8832 82.0612C89.8064 81.8053 90.1392 81.2165 90.7535 80.5254C93.4411 77.6075 95.9752 73.7936 98.0485 69.4678C106.239 52.5486 103.833 32.3787 91.8798 17.7632C89.7297 15.1267 85.1479 10.8521 82.3835 8.88123C79.5423 6.83353 74.5766 4.24829 71.0955 2.94287C64.4149 0.460037 56.1472 -0.538223 49.0059 0.280853Z" fill="white"/>
<path d="M48.8778 13.668C34.0575 16.1764 22.3344 27.7972 19.8515 42.5151C19.2884 45.7402 19.2884 51.2179 19.8515 54.443C22.0272 67.2924 31.1139 77.8381 43.5794 82.0103C47.0861 83.1877 50.3368 83.6741 54.637 83.6741C63.1862 83.6741 70.6603 80.9609 77.213 75.432C81.206 72.0789 85.9925 65.6542 85.9925 63.6321C85.9925 62.7874 84.9687 61.9172 83.996 61.9172C83.1001 61.9172 83.2793 61.7124 80.3357 66.2173C76.7266 71.7462 70.7115 76.2511 64.082 78.4268C58.2717 80.3209 50.7719 80.3209 44.936 78.4268C40.303 76.9166 36.1052 74.3314 32.5473 70.8247C25.8411 64.1952 22.6927 55.7228 23.307 45.9962C24.0237 35.2713 30.7556 25.2887 40.6358 20.3487C47.8795 16.714 56.6591 16.0997 64.338 18.6849C75.2164 22.3196 83.2281 31.5855 85.3526 42.9758C85.8133 45.4587 85.8901 50.9875 85.4806 53.3424C85.1222 55.4925 85.1478 55.8508 85.7365 56.4907C86.4788 57.2842 87.8354 57.2586 88.501 56.4139C89.1921 55.5437 89.6016 52.5233 89.6016 48.4023C89.6016 44.6908 89.3456 42.6687 88.4242 39.2644C84.9175 26.0054 73.6807 15.8693 60.0122 13.668C57.2478 13.2073 51.5398 13.2073 48.8778 13.668Z" fill="white"/>
<path d="M53.5366 26.0052C53.3574 26.082 51.8473 28.8464 50.1835 32.1995L47.1375 38.2402L40.7896 39.1361C34.8257 39.9808 34.3649 40.0832 33.725 40.7231C32.4452 41.9517 32.5988 42.1821 37.846 47.4037L42.7094 52.2158L41.5575 58.7941C40.4057 65.2956 40.4057 65.3468 40.892 65.9867C41.8391 67.2665 42.5046 67.0873 48.6221 63.8622C51.7193 62.224 54.3557 60.893 54.5349 60.893C54.6885 60.893 57.3249 62.224 60.3964 63.8622C66.4884 67.0873 67.1795 67.2665 68.1265 65.9867C68.6129 65.3468 68.6129 65.2956 67.461 58.7941L66.3092 52.2414L71.1725 47.4037C74.5 44.0762 76.0102 42.4124 76.0102 42.0285C76.0102 41.7213 75.7543 41.1582 75.4215 40.7743C74.8584 40.1344 74.5256 40.0576 68.3569 39.1617L61.8554 38.2402L58.9374 32.3531C57.3249 29.1023 55.8147 26.3123 55.5843 26.1332C55.1748 25.826 54.1509 25.7492 53.5366 26.0052ZM56.813 36.7556C58.016 39.2385 59.219 41.3886 59.5006 41.5678C59.9101 41.8237 68.5873 43.2315 69.7391 43.2315C69.8927 43.2315 68.3057 44.8697 66.2068 46.8918C62.7513 50.2449 62.4441 50.6033 62.4441 51.4223C62.4441 51.9343 62.8025 54.3403 63.212 56.772C63.6472 59.2036 63.9543 61.2513 63.9287 61.2769C63.8775 61.3281 61.9066 60.3043 59.5006 59.0245C57.1201 57.7446 54.8676 56.7208 54.5093 56.7208C54.1509 56.7208 51.924 57.7702 49.518 59.0501C47.1375 60.3299 45.141 61.3281 45.0898 61.2769C45.0642 61.2513 45.3714 59.2036 45.8065 56.772C46.2161 54.3403 46.5744 51.9343 46.5744 51.4223C46.5744 50.6033 46.2928 50.2449 42.8117 46.8918C40.7128 44.8697 39.1515 43.2315 39.2794 43.2315C40.4569 43.2315 49.1084 41.8237 49.518 41.5678C49.7995 41.3886 51.0282 39.2129 52.2056 36.7556C53.4086 34.2728 54.4325 32.2507 54.5093 32.2507C54.5861 32.2507 55.6099 34.2728 56.813 36.7556Z" fill="white"/>
</svg>
