<svg width="598" height="717" viewBox="0 0 598 717" fill="none" xmlns="http://www.w3.org/2000/svg">
<g clip-path="url(#clip0_25_2)">
<path d="M0 358.065C0 160.311 133.712 0 298.655 0H435.874C525.032 0 597.309 86.6547 597.309 193.548V358.065C597.309 555.817 463.596 716.129 298.655 716.129C133.712 716.129 0 555.817 0 358.065Z" fill="url(#paint0_linear_25_2)"/>
<path d="M231.4 356.6C252.6 356.6 275.8 353.2 301 346.4C348.2 292.4 398.4 246.8 451.6 209.6C505.2 172 550.4 153.2 587.2 153.2C605.6 153.2 614.8 157.8 614.8 167C614.8 179.4 600.8 197.2 572.8 220.4C544.8 243.6 508.4 267.4 463.6 291.8C418.8 316.2 374.8 335.6 331.6 350C299.2 387.6 273 424 253 459.2C233 494.4 223 523.4 223 546.2C223 578.2 243.4 594.2 284.2 594.2C307 594.2 332.2 587 359.8 572.6C387.4 558.2 410.2 544 428.2 530C432.2 527.2 435.6 525.8 438.4 525.8C441.6 525.8 443.2 527.4 443.2 530.6C443.2 532.6 442.4 534.4 440.8 536C422 549.6 405.2 560.8 390.4 569.6C376 578.4 357 587 333.4 595.4C309.8 604.2 287.2 608.6 265.6 608.6C215.2 608.6 190 589.2 190 550.4C190 503.6 222.4 441 287.2 362.6C268 367.4 249.6 370.4 232 371.6C227.2 370.8 224.8 368.2 224.8 363.8C224.8 359.4 227 357 231.4 356.6ZM568.6 170C545 170 512.2 185.8 470.2 217.4C428.6 248.6 387.4 287 346.6 332.6C383.8 319.4 421.2 302.2 458.8 281C496.8 259.4 527.2 239.2 550 220.4C572.8 201.2 584.2 187.2 584.2 178.4C584.2 172.8 579 170 568.6 170Z" fill="black"/>
</g>
<defs>
<linearGradient id="paint0_linear_25_2" x1="0" y1="356.129" x2="597.309" y2="356.129" gradientUnits="userSpaceOnUse">
<stop stop-color="#FFDB6E"/>
<stop offset="1" stop-color="#FFBC5E"/>
</linearGradient>
<clipPath id="clip0_25_2">
<rect width="597.309" height="716.129" fill="white"/>
</clipPath>
</defs>
</svg>
