<svg width="2710" height="756" viewBox="0 0 2710 756" fill="none" xmlns="http://www.w3.org/2000/svg">
<g clip-path="url(#clip0_25_8)">
<path d="M0 358.065C0 160.311 133.712 0 298.655 0H435.874C525.032 0 597.309 86.6547 597.309 193.548V358.065C597.309 555.817 463.596 716.129 298.655 716.129C133.712 716.129 0 555.817 0 358.065Z" fill="url(#paint0_linear_25_8)"/>
<path d="M231.4 356.6C252.6 356.6 275.8 353.2 301 346.4C348.2 292.4 398.4 246.8 451.6 209.6C505.2 172 550.4 153.2 587.2 153.2C605.6 153.2 614.8 157.8 614.8 167C614.8 179.4 600.8 197.2 572.8 220.4C544.8 243.6 508.4 267.4 463.6 291.8C418.8 316.2 374.8 335.6 331.6 350C299.2 387.6 273 424 253 459.2C233 494.4 223 523.4 223 546.2C223 578.2 243.4 594.2 284.2 594.2C307 594.2 332.2 587 359.8 572.6C387.4 558.2 410.2 544 428.2 530C432.2 527.2 435.6 525.8 438.4 525.8C441.6 525.8 443.2 527.4 443.2 530.6C443.2 532.6 442.4 534.4 440.8 536C422 549.6 405.2 560.8 390.4 569.6C376 578.4 357 587 333.4 595.4C309.8 604.2 287.2 608.6 265.6 608.6C215.2 608.6 190 589.2 190 550.4C190 503.6 222.4 441 287.2 362.6C268 367.4 249.6 370.4 232 371.6C227.2 370.8 224.8 368.2 224.8 363.8C224.8 359.4 227 357 231.4 356.6ZM568.6 170C545 170 512.2 185.8 470.2 217.4C428.6 248.6 387.4 287 346.6 332.6C383.8 319.4 421.2 302.2 458.8 281C496.8 259.4 527.2 239.2 550 220.4C572.8 201.2 584.2 187.2 584.2 178.4C584.2 172.8 579 170 568.6 170Z" fill="black"/>
</g>
<path d="M755 560.5C729.333 560.5 706 554.667 685 543C664.333 531.333 648 514.833 636 493.5C624.333 471.833 618.5 446.833 618.5 418.5C618.5 390.5 624.5 365.833 636.5 344.5C648.833 322.833 665.5 306.333 686.5 295C707.5 283.333 731 277.5 757 277.5C783 277.5 806.5 283.333 827.5 295C848.5 306.333 865 322.667 877 344C889.333 365.333 895.5 390.167 895.5 418.5C895.5 446.833 889.167 471.833 876.5 493.5C864.167 514.833 847.333 531.333 826 543C804.667 554.667 781 560.5 755 560.5ZM755 520.5C771.333 520.5 786.667 516.667 801 509C815.333 501.333 826.833 489.833 835.5 474.5C844.5 459.167 849 440.5 849 418.5C849 396.5 844.667 377.833 836 362.5C827.333 347.167 816 335.833 802 328.5C788 320.833 772.833 317 756.5 317C739.833 317 724.5 320.833 710.5 328.5C696.833 335.833 685.833 347.167 677.5 362.5C669.167 377.833 665 396.5 665 418.5C665 440.833 669 459.667 677 475C685.333 490.333 696.333 501.833 710 509.5C723.667 516.833 738.667 520.5 755 520.5ZM1284.82 277C1306.16 277 1325.16 281.5 1341.82 290.5C1358.49 299.167 1371.66 312.333 1381.32 330C1390.99 347.667 1395.82 369.167 1395.82 394.5V556H1350.82V401C1350.82 373.667 1343.99 352.833 1330.32 338.5C1316.99 323.833 1298.82 316.5 1275.82 316.5C1252.16 316.5 1233.32 324.167 1219.32 339.5C1205.32 354.5 1198.32 376.333 1198.32 405V556H1153.32V401C1153.32 373.667 1146.49 352.833 1132.82 338.5C1119.49 323.833 1101.32 316.5 1078.32 316.5C1054.66 316.5 1035.82 324.167 1021.82 339.5C1007.82 354.5 1000.82 376.333 1000.82 405V556H955.324V282H1000.82V321.5C1009.82 307.167 1021.82 296.167 1036.82 288.5C1052.16 280.833 1068.99 277 1087.32 277C1110.32 277 1130.66 282.167 1148.32 292.5C1165.99 302.833 1179.16 318 1187.82 338C1195.49 318.667 1208.16 303.667 1225.82 293C1243.49 282.333 1263.16 277 1284.82 277ZM1515.96 332.5C1524.96 316.833 1538.29 303.833 1555.96 293.5C1573.96 282.833 1594.79 277.5 1618.46 277.5C1642.79 277.5 1664.79 283.333 1684.46 295C1704.46 306.667 1720.13 323.167 1731.46 344.5C1742.79 365.5 1748.46 390 1748.46 418C1748.46 445.667 1742.79 470.333 1731.46 492C1720.13 513.667 1704.46 530.5 1684.46 542.5C1664.79 554.5 1642.79 560.5 1618.46 560.5C1595.13 560.5 1574.46 555.333 1556.46 545C1538.79 534.333 1525.29 521.167 1515.96 505.5V686H1470.46V282H1515.96V332.5ZM1701.96 418C1701.96 397.333 1697.79 379.333 1689.46 364C1681.13 348.667 1669.79 337 1655.46 329C1641.46 321 1625.96 317 1608.96 317C1592.29 317 1576.79 321.167 1562.46 329.5C1548.46 337.5 1537.13 349.333 1528.46 365C1520.13 380.333 1515.96 398.167 1515.96 418.5C1515.96 439.167 1520.13 457.333 1528.46 473C1537.13 488.333 1548.46 500.167 1562.46 508.5C1576.79 516.5 1592.29 520.5 1608.96 520.5C1625.96 520.5 1641.46 516.5 1655.46 508.5C1669.79 500.167 1681.13 488.333 1689.46 473C1697.79 457.333 1701.96 439 1701.96 418ZM1791.35 418C1791.35 390 1797.02 365.5 1808.35 344.5C1819.68 323.167 1835.18 306.667 1854.85 295C1874.85 283.333 1897.02 277.5 1921.35 277.5C1945.35 277.5 1966.18 282.667 1983.85 293C2001.52 303.333 2014.68 316.333 2023.35 332V282H2069.35V556H2023.35V505C2014.35 521 2000.85 534.333 1982.85 545C1965.18 555.333 1944.52 560.5 1920.85 560.5C1896.52 560.5 1874.52 554.5 1854.85 542.5C1835.18 530.5 1819.68 513.667 1808.35 492C1797.02 470.333 1791.35 445.667 1791.35 418ZM2023.35 418.5C2023.35 397.833 2019.18 379.833 2010.85 364.5C2002.52 349.167 1991.18 337.5 1976.85 329.5C1962.85 321.167 1947.35 317 1930.35 317C1913.35 317 1897.85 321 1883.85 329C1869.85 337 1858.68 348.667 1850.35 364C1842.02 379.333 1837.85 397.333 1837.85 418C1837.85 439 1842.02 457.333 1850.35 473C1858.68 488.333 1869.85 500.167 1883.85 508.5C1897.85 516.5 1913.35 520.5 1930.35 520.5C1947.35 520.5 1962.85 516.5 1976.85 508.5C1991.18 500.167 2002.52 488.333 2010.85 473C2019.18 457.333 2023.35 439.167 2023.35 418.5ZM2279.74 277C2313.08 277 2340.08 287.167 2360.74 307.5C2381.41 327.5 2391.74 356.5 2391.74 394.5V556H2346.74V401C2346.74 373.667 2339.91 352.833 2326.24 338.5C2312.58 323.833 2293.91 316.5 2270.24 316.5C2246.24 316.5 2227.08 324 2212.74 339C2198.74 354 2191.74 375.833 2191.74 404.5V556H2146.24V282H2191.74V321C2200.74 307 2212.91 296.167 2228.24 288.5C2243.91 280.833 2261.08 277 2279.74 277ZM2702.07 282L2537.07 685H2490.07L2544.07 553L2433.57 282H2484.07L2570.07 504L2655.07 282H2702.07Z" fill="black"/>
<defs>
<linearGradient id="paint0_linear_25_8" x1="0" y1="356.129" x2="597.309" y2="356.129" gradientUnits="userSpaceOnUse">
<stop stop-color="#FFDB6E"/>
<stop offset="1" stop-color="#FFBC5E"/>
</linearGradient>
<clipPath id="clip0_25_8">
<rect width="597.309" height="716.129" fill="white"/>
</clipPath>
</defs>
</svg>
